<?xml version="1.0" standalone="no"?>
<!DOCTYPE svg PUBLIC "-//W3C//DTD SVG 20010904//EN"
 "http://www.w3.org/TR/2001/REC-SVG-20010904/DTD/svg10.dtd">
<svg version="1.0" xmlns="http://www.w3.org/2000/svg"
 width="500.000000pt" height="500.000000pt" viewBox="0 0 500.000000 500.000000"
 preserveAspectRatio="xMidYMid meet">

<g transform="translate(0.000000,500.000000) scale(0.100000,-0.100000)"
fill="#000000" stroke="none">
<path d="M2522 3799 c-52 -93 -47 -89 -109 -89 -72 0 -89 -9 -74 -38 6 -12 20
-26 31 -32 11 -6 27 -22 36 -36 16 -23 16 -29 -2 -86 -17 -58 -17 -61 0 -73
16 -12 15 -17 -13 -72 -16 -32 -61 -98 -100 -147 -39 -49 -71 -97 -71 -107 0
-42 60 -41 119 0 46 33 82 36 130 12 38 -20 46 -21 101 -9 55 11 63 10 103
-10 23 -12 52 -19 62 -16 16 4 25 -5 44 -41 13 -25 50 -74 82 -109 75 -82 76
-96 7 -97 -51 -1 -52 -1 -21 -11 24 -8 35 -20 48 -55 10 -25 44 -73 77 -109
l60 -64 -30 0 -31 0 37 -66 c20 -36 60 -92 89 -124 57 -63 63 -76 35 -84 -20
-7 -56 3 -125 33 -71 31 -113 27 -177 -14 -30 -19 -65 -35 -77 -35 -12 0 -57
18 -100 39 -116 58 -121 59 -211 16 -86 -40 -102 -39 -167 10 -52 41 -90 42
-175 6 -74 -32 -130 -37 -137 -14 -2 6 19 35 46 63 28 29 64 76 81 105 16 29
41 57 57 64 48 22 117 25 169 7 59 -20 121 -21 167 -1 59 24 102 18 213 -30
130 -57 156 -58 181 -8 11 24 27 40 43 43 25 6 25 6 -5 14 -24 6 -33 3 -47
-14 -10 -12 -18 -28 -18 -36 0 -22 -30 -32 -66 -22 -18 5 -68 24 -110 44 -89
40 -140 45 -213 18 -47 -17 -53 -17 -110 -1 -80 22 -146 21 -200 -3 -52 -24
-60 -24 -90 -4 l-23 16 35 37 c20 20 51 62 71 94 23 39 50 69 80 88 73 46 85
46 185 0 123 -57 173 -62 242 -25 40 22 65 29 108 28 53 0 54 0 26 12 -45 20
-70 17 -147 -17 -86 -37 -122 -35 -226 16 -83 41 -113 43 -167 10 -50 -31 -89
-32 -109 -3 -14 19 -16 20 -22 5 -7 -20 12 -47 32 -47 8 0 14 -6 14 -13 0 -20
-57 -107 -97 -148 -38 -40 -41 -71 -8 -77 11 -2 24 -7 28 -12 12 -11 -37 -85
-100 -153 -56 -59 -62 -80 -25 -85 12 -2 22 -9 22 -16 0 -7 -32 -53 -71 -102
-46 -56 -58 -76 -35 -54 21 19 60 65 87 101 45 60 57 70 126 99 83 34 121 35
164 1 37 -29 86 -51 111 -51 13 0 46 14 73 30 72 43 111 40 225 -15 104 -51
108 -51 194 4 32 20 63 31 85 31 37 0 141 -42 141 -57 0 -4 34 -46 76 -92 88
-99 94 -127 29 -125 -22 1 -66 7 -97 14 l-57 14 -74 -38 c-69 -36 -79 -38
-128 -32 -148 18 -153 18 -207 -3 -63 -25 -101 -26 -172 -5 -53 16 -94 15
-212 -2 -41 -6 -55 -2 -120 30 -81 40 -118 44 -177 20 -52 -20 -93 -15 -106
14 -11 25 -23 24 -39 -1 -29 -46 42 -71 119 -41 60 22 123 15 178 -22 46 -32
86 -35 235 -19 41 4 72 4 72 -1 0 -17 181 -25 213 -10 14 7 17 3 17 -21 0 -29
3 -31 103 -62 144 -45 197 -51 407 -49 l185 2 -210 6 c-222 8 -270 16 -410 74
-43 17 -61 30 -63 45 -4 26 31 36 101 27 161 -21 159 -21 232 18 79 42 91 43
186 16 78 -21 109 -15 109 20 0 11 -28 50 -63 87 -35 38 -73 82 -86 98 l-23
30 38 5 c59 8 55 30 -15 106 -50 53 -111 146 -111 169 0 3 9 5 19 5 36 0 31
16 -20 66 -54 52 -104 137 -95 160 3 8 14 14 25 14 37 0 28 25 -32 90 -32 36
-75 92 -94 125 -33 56 -34 61 -22 97 13 42 17 34 -62 134 -25 33 -58 80 -73
107 -23 38 -25 47 -12 47 10 0 16 9 16 25 0 29 -8 32 -24 10 -10 -14 -17 -12
-60 16 l-49 33 -41 -22 c-74 -40 -86 -30 -64 52 12 44 11 45 -25 85 -20 23
-37 45 -37 51 0 11 28 19 85 22 37 3 42 7 64 51 26 50 43 58 60 30 14 -24 14
2 1 28 -15 27 -28 24 -48 -12z m69 -341 c8 -7 28 -36 43 -65 16 -28 55 -84 87
-124 63 -77 67 -97 27 -131 -25 -22 -51 -23 -84 -2 -19 13 -36 15 -77 9 -71
-9 -89 -8 -123 10 -38 20 -43 19 -99 -11 -49 -26 -115 -30 -122 -8 -2 7 28 49
67 95 40 46 89 119 111 162 56 110 95 125 170 65z"/>
<path d="M2594 3717 c3 -10 6 -20 6 -22 0 -3 22 -7 50 -11 51 -7 74 -22 62
-40 -4 -5 -24 -23 -44 -38 -24 -18 -38 -36 -37 -50 0 -21 0 -21 9 1 5 12 28
36 52 53 48 35 63 56 48 65 -5 3 -36 10 -67 15 -35 6 -64 17 -72 27 -13 17
-13 17 -7 0z"/>
<path d="M2642 3510 c0 -14 2 -19 5 -12 2 6 2 18 0 25 -3 6 -5 1 -5 -13z"/>
<path d="M2220 3030 c-6 -11 -8 -20 -6 -20 3 0 10 9 16 20 6 11 8 20 6 20 -3
0 -10 -9 -16 -20z"/>
<path d="M2139 2913 c-13 -16 -12 -17 4 -4 9 7 17 15 17 17 0 8 -8 3 -21 -13z"/>
<path d="M2325 1980 l-20 -9 20 1 c11 0 34 4 50 8 l30 8 -30 0 c-16 0 -39 -3
-50 -8z"/>
<path d="M2313 1923 c9 -2 23 -2 30 0 6 3 -1 5 -18 5 -16 0 -22 -2 -12 -5z"/>
<path d="M2361 1926 c2 -2 29 -6 59 -9 34 -3 47 -2 35 3 -19 8 -103 14 -94 6z"/>
<path d="M2643 1913 c9 -2 23 -2 30 0 6 3 -1 5 -18 5 -16 0 -22 -2 -12 -5z"/>
<path d="M2480 1906 c0 -2 7 -7 16 -10 8 -3 12 -2 9 4 -6 10 -25 14 -25 6z"/>
<path d="M1580 1891 c0 -19 44 -30 163 -42 115 -12 220 -4 310 22 60 16 39 19
-28 3 -33 -7 -105 -14 -160 -14 -86 0 -132 7 -262 37 -14 3 -23 1 -23 -6z"/>
<path d="M1440 1626 c0 -114 5 -123 52 -100 36 19 54 80 38 130 -14 41 -46 74
-72 74 -16 0 -18 -10 -18 -104z m67 43 c17 -33 16 -80 -3 -107 -26 -38 -34
-25 -34 59 0 85 11 99 37 48z"/>
<path d="M1870 1725 c-1 -5 -1 -41 0 -80 2 -81 -7 -78 -40 13 -34 95 -50 83
-50 -38 0 -81 3 -100 15 -100 10 0 15 16 17 63 l3 62 25 -64 c14 -34 30 -63
35 -62 13 1 18 161 6 192 -5 13 -11 20 -11 14z"/>
<path d="M1961 1716 c-14 -17 -43 -151 -39 -180 4 -27 22 -24 28 6 4 16 14 24
33 26 23 3 27 0 27 -22 0 -14 5 -26 11 -26 15 0 4 119 -15 165 -17 40 -30 49
-45 31z m38 -93 c1 -27 -3 -33 -20 -33 -19 0 -20 4 -14 43 4 23 10 46 13 51 8
14 20 -23 21 -61z"/>
<path d="M2421 1711 c-40 -40 -35 -168 7 -190 25 -13 61 5 68 34 9 35 -3 44
-15 12 -23 -61 -53 -32 -55 53 -1 45 3 64 17 77 17 17 19 17 37 -7 15 -19 20
-21 20 -8 0 20 -26 48 -46 48 -8 0 -23 -9 -33 -19z"/>
<path d="M2680 1722 c-28 -8 -40 -36 -40 -93 0 -101 38 -142 86 -94 19 20 24
34 24 79 0 87 -23 122 -70 108z m41 -28 c20 -25 17 -131 -5 -152 -16 -16 -18
-16 -32 2 -26 36 -14 166 15 166 5 0 15 -7 22 -16z"/>
<path d="M2790 1715 c0 -8 4 -15 10 -15 5 0 11 -39 12 -87 2 -70 6 -88 18 -88
12 0 16 18 18 88 1 48 7 87 12 87 6 0 10 7 10 15 0 11 -11 15 -40 15 -29 0
-40 -4 -40 -15z"/>
<path d="M3053 1723 c-14 -5 -18 -169 -5 -189 11 -18 50 -26 69 -15 17 10 16
10 -2 11 -29 0 -45 19 -45 52 0 21 5 28 20 28 11 0 20 5 20 10 0 6 -9 10 -21
10 -17 0 -20 5 -17 37 2 30 8 38 28 43 22 5 23 7 7 13 -21 8 -36 8 -54 0z"/>
<path d="M3177 1718 c-25 -13 -21 -53 10 -107 29 -53 27 -87 -7 -76 -11 3 -20
2 -20 -3 0 -14 27 -22 48 -15 39 15 42 53 7 105 -14 20 -25 47 -25 59 0 17 5
20 25 16 15 -2 24 0 22 6 -5 16 -42 26 -60 15z"/>
<path d="M3380 1710 c-22 -22 -17 -49 18 -102 30 -46 26 -74 -11 -71 -32 2
-34 -3 -6 -17 16 -9 26 -8 45 5 31 20 30 47 -1 93 -14 20 -25 47 -25 60 0 21
4 23 25 18 18 -5 23 -3 19 8 -9 23 -44 26 -64 6z"/>
<path d="M3777 1723 c-10 -10 -8 -201 2 -207 10 -7 21 17 21 47 0 12 11 30 25
42 38 31 42 69 11 99 -25 26 -46 32 -59 19z m59 -50 c5 -18 1 -31 -15 -46
l-21 -21 0 51 c0 43 3 51 15 47 8 -4 18 -17 21 -31z"/>
<path d="M1591 1681 c-6 -23 -15 -71 -18 -108 -6 -63 -5 -67 10 -54 10 7 17
22 17 32 0 14 7 19 30 19 25 0 30 -4 30 -25 0 -14 5 -25 11 -25 14 0 4 102
-14 159 -18 54 -50 55 -66 2z m56 -50 c5 -38 4 -41 -17 -41 -21 0 -22 3 -16
38 3 20 6 44 6 52 0 30 22 -8 27 -49z"/>
<path d="M1717 1713 c-9 -8 -9 -166 -1 -187 14 -37 24 2 24 95 0 91 -5 111
-23 92z"/>
<path d="M2064 1707 c-3 -8 -4 -52 -2 -98 2 -67 6 -84 18 -84 12 0 14 13 12
70 -4 77 4 78 32 2 10 -26 21 -45 26 -42 4 2 14 26 21 52 l14 48 3 -67 c2 -41
7 -68 14 -68 7 0 9 21 5 68 -4 37 -7 82 -7 100 0 45 -26 42 -39 -5 -6 -21 -11
-44 -11 -50 0 -30 -20 -9 -35 37 -16 48 -40 66 -51 37z"/>
<path d="M2537 1713 c-4 -3 -7 -42 -7 -85 0 -65 3 -81 20 -98 21 -21 32 -24
43 -13 4 3 -2 12 -13 20 -17 12 -20 26 -20 99 0 77 -5 95 -23 77z"/>
<path d="M2912 1618 c2 -64 7 -101 13 -98 6 3 10 23 11 45 0 35 3 40 25 40 20
0 24 -5 25 -30 2 -59 4 -66 14 -60 11 7 14 146 4 183 -10 37 -24 25 -24 -23 0
-38 -3 -45 -19 -45 -16 0 -20 8 -23 42 -2 23 -9 43 -16 46 -10 3 -12 -19 -10
-100z"/>
<path d="M3487 1713 c-12 -11 -8 -181 4 -188 17 -11 23 3 21 45 -3 37 -1 40
23 40 23 0 25 -3 25 -45 0 -35 4 -45 16 -45 14 0 16 8 10 46 -3 26 -6 71 -6
100 0 30 -4 54 -10 54 -5 0 -10 -20 -10 -45 0 -41 -2 -45 -25 -45 -23 0 -25 4
-25 45 0 42 -7 54 -23 38z"/>
<path d="M3634 1695 c-24 -37 -15 -142 14 -166 46 -37 86 7 86 94 0 68 -16 97
-54 97 -20 0 -35 -8 -46 -25z m77 -12 c13 -35 6 -117 -12 -139 -34 -41 -65 72
-39 140 13 34 38 33 51 -1z"/>
</g>
</svg>
